HIERARCHY
ROOT hip
{
  OFFSET 0.0 0.0 0.0
  CHANNELS 6 Xposition Yposition Zposition Zrotation Yrotation Xrotation
  JOINT abdomen
  {
    OFFSET 0.0 20.6881 -0.73152
    CHANNELS 3 Zrotation Xrotation Yrotation
    JOINT chest
    {
      OFFSET 0.0 11.7043 -0.48768
      CHANNELS 3 Zrotation Xrotation Yrotation
      JOINT neck
      {
        OFFSET 0.0 22.1894 -2.19456
        CHANNELS 3 Zrotation Xrotation Yrotation
        JOINT head
        {
          OFFSET -0.24384 7.07133 1.2192
          CHANNELS 3 Zrotation Xrotation Yrotation
          JOINT leftEye
          {
            OFFSET 4.14528 8.04674 8.04672
            CHANNELS 3 Zrotation Xrotation Yrotation
            End Site
            {
              OFFSET 1.0 0.0 0.0
            }
          }
          JOINT rightEye
          {
            OFFSET -3.6576 8.04674 8.04672
            CHANNELS 3 Zrotation Xrotation Yrotation
            End Site
            {
              OFFSET 1.0 0.0 0.0
            }
          }
        }
      }
      JOINT rCollar
      {
        OFFSET -2.68224 19.2634 -4.8768
        CHANNELS 3 Zrotation Xrotation Yrotation
        JOINT rShldr
        {
          OFFSET -8.77824 -1.95073 1.46304
          CHANNELS 3 Zrotation Xrotation Yrotation
          JOINT rForeArm
          {
            OFFSET -28.1742 -1.7115 0.48768
            CHANNELS 3 Zrotation Xrotation Yrotation
            JOINT rHand
            {
              OFFSET -22.5879 0.773209 7.07136
              CHANNELS 3 Zrotation Xrotation Yrotation
              JOINT rThumb1
              {
                OFFSET -1.2192 -0.487915 3.41376
                CHANNELS 3 Zrotation Xrotation Yrotation
                JOINT rThumb2
                {
                  OFFSET -3.37035 -0.52449 3.41376
                  CHANNELS 3 Zrotation Xrotation Yrotation
                  End Site
                  {
                    OFFSET -1.78271 -1.18214 1.43049
                  }
                }
              }
              JOINT rIndex1
              {
                OFFSET -7.75947 0.938293 5.60832
                CHANNELS 3 Zrotation Xrotation Yrotation
                JOINT rIndex2
                {
                  OFFSET -2.54057 -0.884171 1.56538
                  CHANNELS 3 Zrotation Xrotation Yrotation
                  End Site
                  {
                    OFFSET -1.62519 -0.234802 1.16502
                  }
                }
              }
              JOINT rMid1
              {
                OFFSET -8.24714 1.18213 3.41376
                CHANNELS 3 Zrotation Xrotation Yrotation
                JOINT rMid2
                {
                  OFFSET -3.10165 -0.590103 1.0647
                  CHANNELS 3 Zrotation Xrotation Yrotation
                  End Site
                  {
                    OFFSET -2.48547 -0.328903 0.83742
                  }
                }
              }
              JOINT rRing1
              {
                OFFSET -8.82822 0.546677 1.51678
                CHANNELS 3 Zrotation Xrotation Yrotation
                JOINT rRing2
                {
                  OFFSET -2.60934 -0.819778 -0.0198488
                  CHANNELS 3 Zrotation Xrotation Yrotation
                  End Site
                  {
                    OFFSET -2.33842 -0.294052 0.168128
                  }
                }
              }
              JOINT rPinky1
              {
                OFFSET -8.27202 -0.0477905 -0.4584
                CHANNELS 3 Zrotation Xrotation Yrotation
                JOINT rPinky2
                {
                  OFFSET -1.82734 -0.647385 -0.700984
                  CHANNELS 3 Zrotation Xrotation Yrotation
                  End Site
                  {
                    OFFSET -1.69225 -0.51767 -0.607171
                  }
                }
              }
            }
          }
        }
      }
      JOINT lCollar
      {
        OFFSET 2.68224 19.2634 -4.8768
        CHANNELS 3 Zrotation Xrotation Yrotation
        JOINT lShldr
        {
          OFFSET 8.77824 -1.95073 1.46304
          CHANNELS 3 Zrotation Xrotation Yrotation
          JOINT lForeArm
          {
            OFFSET 28.1742 -1.7115 0.48768
            CHANNELS 3 Zrotation Xrotation Yrotation
            JOINT lHand
            {
              OFFSET 22.5879 0.773209 7.07136
              CHANNELS 3 Zrotation Xrotation Yrotation
              JOINT lThumb1
              {
                OFFSET 1.2192 -0.487915 3.41376
                CHANNELS 3 Zrotation Xrotation Yrotation
                JOINT lThumb2
                {
                  OFFSET 3.37035 -0.52449 3.41376
                  CHANNELS 3 Zrotation Xrotation Yrotation
                  End Site
                  {
                    OFFSET 1.78271 -1.18214 1.43049
                  }
                }
              }
              JOINT lIndex1
              {
                OFFSET 7.75947 0.938293 5.60832
                CHANNELS 3 Zrotation Xrotation Yrotation
                JOINT lIndex2
                {
                  OFFSET 2.54057 -0.884171 1.56538
                  CHANNELS 3 Zrotation Xrotation Yrotation
                  End Site
                  {
                    OFFSET 1.62519 -0.234802 1.16502
                  }
                }
              }
              JOINT lMid1
              {
                OFFSET 8.24714 1.18213 3.41376
                CHANNELS 3 Zrotation Xrotation Yrotation
                JOINT lMid2
                {
                  OFFSET 3.10165 -0.590103 1.0647
                  CHANNELS 3 Zrotation Xrotation Yrotation
                  End Site
                  {
                    OFFSET 2.48547 -0.328903 0.83742
                  }
                }
              }
              JOINT lRing1
              {
                OFFSET 8.82822 0.546677 1.51678
                CHANNELS 3 Zrotation Xrotation Yrotation
                JOINT lRing2
                {
                  OFFSET 2.60934 -0.819778 -0.0198488
                  CHANNELS 3 Zrotation Xrotation Yrotation
                  End Site
                  {
                    OFFSET 2.33842 -0.294052 0.168128
                  }
                }
              }
              JOINT lPinky1
              {
                OFFSET 8.27202 -0.0477905 -0.4584
                CHANNELS 3 Zrotation Xrotation Yrotation
                JOINT lPinky2
                {
                  OFFSET 1.82734 -0.647385 -0.700984
                  CHANNELS 3 Zrotation Xrotation Yrotation
                  End Site
                  {
                    OFFSET 1.69225 -0.51767 -0.607171
                  }
                }
              }
            }
          }
        }
      }
    }
  }
  JOINT rButtock
  {
    OFFSET -8.77824 4.35084 1.2192
    CHANNELS 3 Zrotation Xrotation Yrotation
    JOINT rThigh
    {
      OFFSET 0.0 -1.70687 -2.19456
      CHANNELS 3 Zrotation Xrotation Yrotation
      JOINT rShin
      {
        OFFSET 0.0 -36.8199 0.73152
        CHANNELS 3 Zrotation Xrotation Yrotation
        JOINT rFoot
        {
          OFFSET 0.73152 -45.1104 -5.12064
          CHANNELS 3 Zrotation Xrotation Yrotation
          End Site
          {
            OFFSET -1.1221 -3.69964 12.103
          }
        }
      }
    }
  }
  JOINT lButtock
  {
    OFFSET 8.77824 4.35084 1.2192
    CHANNELS 3 Zrotation Xrotation Yrotation
    JOINT lThigh
    {
      OFFSET 0.0 -1.70687 -2.19456
      CHANNELS 3 Zrotation Xrotation Yrotation
      JOINT lShin
      {
        OFFSET 0.0 -36.8199 0.73152
        CHANNELS 3 Zrotation Xrotation Yrotation
        JOINT lFoot
        {
          OFFSET -0.73152 -45.1104 -5.12064
          CHANNELS 3 Zrotation Xrotation Yrotation
          End Site
          {
            OFFSET 1.1221 -3.69964 12.103
          }
        }
      }
    }
  }
}
MOTION
Frames: 8
Frame Time: 0.00833333
0.0 66.0342 0.0 -181.765 82.2087 -170.647 3.26789 41.5154 -5.59429 -0.992341 -10.0468 -0.542441 2.33448 10.5283 -1.2117 2.76911 -48.3021 -0.750192 -0.0 0.0 0.0 -0.0 0.0 0.0 0.0 0.0 0.0 0.0 0.0 0.0 0.0 0.0 0.0 -0.027463 -4.72526 -0.665616 -1.71893e-09 -2.14833e-09 1.21077e-10 -2.98391e-09 -3.71814e-09 2.07344e-10 -1.71893e-09 -2.14833e-09 1.21068e-10 7.73091 5.47488 0.417314 -1.71893e-09 -2.14834e-09 1.21071e-10 2.90554 0.965183 0.102902 -1.71892e-09 -2.14833e-09 1.21074e-10 10.2786 0.731801 0.0259123 -1.71894e-09 -2.14833e-09 1.21084e-10 2.22167 -0.733487 -0.20892 0.0 0.0 0.0 0.0 0.0 0.0 0.0 0.0 0.0 0.750081 -23.814 3.55615 6.22045e-10 -2.35683e-09 -5.42475e-11 1.09194e-09 -4.07843e-09 -8.96304e-11 6.22044e-10 -2.35682e-09 -5.42189e-11 -7.73091 5.47488 -0.417314 6.22049e-10 -2.35682e-09 -5.42412e-11 -2.90554 0.965183 -0.102902 6.22046e-10 -2.35682e-09 -5.42491e-11 -10.2786 0.731801 -0.0259123 6.22047e-10 -2.35682e-09 -5.42571e-11 -2.22167 -0.733487 0.20892 -2.03217e-16 0.0 -3.88251e-19 2.23895 -63.5134 -4.49547 -3.52748 76.859 4.17027 -6.52943 -23.405 -12.3331 2.03217e-16 0.0 3.88251e-19 30.4799 -68.7052 32.5534 172.86 80.0914 -173.457 0.326487 -4.84758 -2.72234
0.6410000000000196 65.9458 0.04019999999999868 -181.514 82.2736 -170.522 3.19325 41.6743 -5.53862 -1.02269 -10.0667 -0.528763 2.3322 10.5441 -1.20474 2.77892 -48.2554 -0.735314 -0.0 0.0 0.0 -0.0 0.0 0.0 0.0 0.0 0.0 0.0 0.0 0.0 0.0 0.0 0.0 -0.0276529 -4.74145 -0.667908 -1.86282e-09 -2.30111e-09 1.37973e-10 -3.2336e-09 -3.98263e-09 2.3647e-10 -1.86282e-09 -2.3011e-09 1.37962e-10 7.73091 5.47488 0.417314 -1.86282e-09 -2.30111e-09 1.37968e-10 2.90554 0.965183 0.102902 -1.86281e-09 -2.30111e-09 1.3797e-10 10.2786 0.731801 0.0259123 -1.86283e-09 -2.30111e-09 1.37979e-10 2.22167 -0.733487 -0.20892 0.0 0.0 0.0 0.0 0.0 0.0 0.0 0.0 0.0 0.751003 -23.8273 3.55841 6.89118e-10 -2.47496e-09 -1.58675e-11 1.20832e-09 -4.28209e-09 -2.234e-11 6.89118e-10 -2.47496e-09 -1.58424e-11 -7.73091 5.47488 -0.417314 6.89122e-10 -2.47496e-09 -1.58653e-11 -2.90554 0.965183 -0.102902 6.89117e-10 -2.47496e-09 -1.58694e-11 -10.2786 0.731801 -0.0259123 6.8912e-10 -2.47495e-09 -1.58766e-11 -2.22167 -0.733487 0.20892 -2.03217e-16 0.0 -3.88251e-19 2.30648 -63.0706 -4.58256 -3.65211 77.2086 4.29341 -6.60556 -23.8833 -12.3141 2.03217e-16 0.0 3.88251e-19 29.971 -69.7796 32.4157 172.02 81.2616 -172.573 0.34208 -5.4123 -2.47657
1.27800000000002 65.8614 0.07379999999999853 -181.326 82.3321 -170.458 3.11784 41.8333 -5.50104 -1.05664 -10.0848 -0.51946 2.32929 10.5578 -1.19702 2.7972 -48.2117 -0.714318 -0.0 0.0 0.0 -0.0 0.0 0.0 0.0 0.0 0.0 0.0 0.0 0.0 0.0 0.0 0.0 -0.0279055 -4.76277 -0.670926 -1.96053e-09 -2.35347e-09 1.19442e-10 -3.4028e-09 -4.07323e-09 2.04275e-10 -1.96052e-09 -2.35347e-09 1.1943e-10 7.73091 5.47488 0.417314 -1.96052e-09 -2.35347e-09 1.19439e-10 2.90554 0.965183 0.102902 -1.96052e-09 -2.35347e-09 1.19441e-10 10.2786 0.731801 0.0259123 -1.96053e-09 -2.35347e-09 1.19448e-10 2.22167 -0.733487 -0.20892 0.0 0.0 0.0 0.0 0.0 0.0 0.0 0.0 0.0 0.749684 -23.8078 3.55514 7.06523e-10 -2.50649e-09 3.21596e-11 1.23823e-09 -4.33617e-09 6.10711e-11 7.06524e-10 -2.50649e-09 3.21767e-11 -7.73091 5.47488 -0.417314 7.06527e-10 -2.50649e-09 3.21554e-11 -2.90554 0.965183 -0.102902 7.0652e-10 -2.50649e-09 3.2157e-11 -10.2786 0.731801 -0.0259123 7.06527e-10 -2.50648e-09 3.21512e-11 -2.22167 -0.733487 0.20892 -2.03217e-16 0.0 -3.88251e-19 2.33785 -62.6189 -4.69662 -3.7819 77.551 4.41943 -6.67786 -24.3551 -12.2936 2.03217e-16 0.0 3.88251e-19 29.2279 -70.7966 32.0617 170.76 82.5713 -171.269 0.388817 -5.93533 -2.09031
1.9110000000000014 65.7831 0.10180000000000078 -181.194 82.3853 -170.445 3.03848 41.9839 -5.47294 -1.09008 -10.1004 -0.512646 2.32578 10.5665 -1.18895 2.81785 -48.1652 -0.691544 -0.0 0.0 0.0 -0.0 0.0 0.0 0.0 0.0 0.0 0.0 0.0 0.0 0.0 0.0 0.0 -0.0282419 -4.79125 -0.674956 -1.94603e-09 -2.29884e-09 1.21754e-10 -3.37743e-09 -3.97874e-09 2.08362e-10 -1.94602e-09 -2.29884e-09 1.21741e-10 7.73091 5.47488 0.417314 -1.94602e-09 -2.29884e-09 1.21752e-10 2.90554 0.965183 0.102902 -1.94602e-09 -2.29884e-09 1.21755e-10 10.2786 0.731801 0.0259123 -1.94603e-09 -2.29884e-09 1.21759e-10 2.22167 -0.733487 -0.20892 0.0 0.0 0.0 0.0 0.0 0.0 0.0 0.0 0.0 0.74695 -23.7676 3.54837 7.04703e-10 -2.38849e-09 7.98053e-11 1.23385e-09 -4.13132e-09 1.43812e-10 7.04705e-10 -2.3885e-09 7.98138e-11 -7.73091 5.47488 -0.417314 7.04708e-10 -2.38849e-09 7.97952e-11 -2.90554 0.965183 -0.102902 7.04699e-10 -2.38849e-09 7.98022e-11 -10.2786 0.731801 -0.0259123 7.04708e-10 -2.38849e-09 7.97979e-11 -2.22167 -0.733487 0.20892 -2.03217e-16 0.0 -3.88251e-19 2.34799 -62.1649 -4.8233 -3.91333 77.8768 4.54512 -6.74651 -24.8186 -12.2729 2.03217e-16 0.0 3.88251e-19 28.3008 -71.7378 31.5393 168.737 84.0082 -169.202 0.45897 -6.44311 -1.61385
2.5360000000000014 65.7108 0.1269999999999989 -181.08 82.4364 -170.441 2.95184 42.1173 -5.4456 -1.11892 -10.1127 -0.506434 2.3217 10.5673 -1.18093 2.83481 -48.1096 -0.671329 -0.0 0.0 0.0 -0.0 0.0 0.0 0.0 0.0 0.0 0.0 0.0 0.0 0.0 0.0 0.0 -0.028685 -4.82893 -0.680289 -1.75332e-09 -2.13063e-09 2.01176e-10 -3.04346e-09 -3.68794e-09 3.46331e-10 -1.75331e-09 -2.13063e-09 2.01164e-10 7.73091 5.47488 0.417314 -1.75332e-09 -2.13063e-09 2.01176e-10 2.90554 0.965183 0.102902 -1.75331e-09 -2.13063e-09 2.0118e-10 10.2786 0.731801 0.0259123 -1.75332e-09 -2.13063e-09 2.01183e-10 2.22167 -0.733487 -0.20892 0.0 0.0 0.0 0.0 0.0 0.0 0.0 0.0 0.0 0.743626 -23.7187 3.54014 7.14101e-10 -2.05804e-09 1.17041e-10 1.24735e-09 -3.5582e-09 2.09091e-10 7.14102e-10 -2.05806e-09 1.17044e-10 -7.73091 5.47488 -0.417314 7.14105e-10 -2.05805e-09 1.17029e-10 -2.90554 0.965183 -0.102902 7.14095e-10 -2.05804e-09 1.17038e-10 -10.2786 0.731801 -0.0259123 7.14106e-10 -2.05804e-09 1.17035e-10 -2.22167 -0.733487 0.20892 -2.03217e-16 0.0 -3.88251e-19 2.35075 -61.7153 -4.94917 -4.04216 78.1768 4.66658 -6.81175 -25.2721 -12.2531 2.03217e-16 0.0 3.88251e-19 27.2567 -72.5848 30.9124 165.074 85.5552 -165.494 0.543608 -6.96208 -1.09763
3.15300000000002 65.6456 0.1504000000000012 -180.98 82.4875 -170.437 2.85738 42.2333 -5.4204 -1.14152 -10.1214 -0.501027 2.31702 10.5563 -1.17302 2.84507 -48.0367 -0.655923 -0.0 0.0 0.0 -0.0 0.0 0.0 0.0 0.0 0.0 0.0 0.0 0.0 0.0 0.0 0.0 -0.0292621 -4.87737 -0.687147 -1.22612e-09 -1.75443e-09 4.41411e-10 -2.1303e-09 -3.03774e-09 7.63501e-10 -1.22612e-09 -1.75443e-09 4.41401e-10 7.73091 5.47488 0.417314 -1.22612e-09 -1.75443e-09 4.41413e-10 2.90554 0.965183 0.102902 -1.22611e-09 -1.75443e-09 4.41417e-10 10.2786 0.731801 0.0259123 -1.22612e-09 -1.75443e-09 4.41421e-10 2.22167 -0.733487 -0.20892 0.0 0.0 0.0 0.0 0.0 0.0 0.0 0.0 0.0 0.73951 -23.6578 3.52991 7.57972e-10 -1.31466e-09 1.3207e-10 1.31757e-09 -2.26913e-09 2.37204e-10 7.57972e-10 -1.31468e-09 1.32072e-10 -7.73091 5.47488 -0.417314 7.57975e-10 -1.31467e-09 1.32059e-10 -2.90554 0.965183 -0.102902 7.57965e-10 -1.31467e-09 1.32067e-10 -10.2786 0.731801 -0.0259123 7.57978e-10 -1.31466e-09 1.32065e-10 -2.22167 -0.733487 0.20892 -2.03217e-16 0.0 -3.88251e-19 2.34557 -61.2676 -5.07185 -4.1663 78.4487 4.78165 -6.87452 -25.7202 -12.2347 2.03217e-16 0.0 3.88251e-19 26.0632 -73.3301 30.1459 156.546 87.1931 -156.922 0.644527 -7.5221 -0.536993
3.761000000000024 65.5917 0.17190000000000083 -180.895 82.5422 -170.434 2.75687 42.3357 -5.40083 -1.16026 -10.1269 -0.497196 2.31174 10.5362 -1.16501 2.85233 -47.952 -0.642654 -0.0 0.0 0.0 -0.0 0.0 0.0 0.0 0.0 0.0 0.0 0.0 0.0 0.0 0.0 0.0 -0.0299641 -4.93515 -0.695327 -4.45862e-10 -1.20464e-09 7.8955e-10 -7.78818e-10 -2.08749e-09 1.36805e-09 -4.45859e-10 -1.20464e-09 7.89544e-10 7.73091 5.47488 0.417314 -4.4586e-10 -1.20464e-09 7.89554e-10 2.90554 0.965183 0.102902 -4.45857e-10 -1.20464e-09 7.89558e-10 10.2786 0.731801 0.0259123 -4.45865e-10 -1.20464e-09 7.89564e-10 2.22167 -0.733487 -0.20892 0.0 0.0 0.0 0.0 0.0 0.0 0.0 0.0 0.0 0.734329 -23.5808 3.51699 8.15035e-10 -2.53145e-10 1.3328e-10 1.40837e-09 -4.28587e-10 2.42182e-10 8.15032e-10 -2.53153e-10 1.33285e-10 -7.73091 5.47488 -0.417314 8.15036e-10 -2.53149e-10 1.33276e-10 -2.90554 0.965183 -0.102902 8.15026e-10 -2.53147e-10 1.33279e-10 -10.2786 0.731801 -0.0259123 8.1504e-10 -2.53146e-10 1.33278e-10 -2.22167 -0.733487 0.20892 -2.03217e-16 0.0 -3.88251e-19 2.32677 -60.8196 -5.19787 -4.28653 78.6974 4.89099 -6.93444 -26.162 -12.2169 2.03217e-16 0.0 3.88251e-19 24.6803 -73.9815 29.1987 123.388 88.697 -123.719 0.769101 -8.10091 0.0896381
4.358000000000004 65.5472 0.192499999999999 -180.837 82.6019 -170.438 2.6504 42.4227 -5.38124 -1.17703 -10.1296 -0.493907 2.30596 10.5135 -1.15693 2.86056 -47.8701 -0.628472 -0.0 0.0 0.0 -0.0 0.0 0.0 0.0 0.0 0.0 0.0 0.0 0.0 0.0 0.0 0.0 -0.0307601 -4.99982 -0.704486 2.96904e-10 -6.67878e-10 1.09695e-09 5.07815e-10 -1.15963e-09 1.90189e-09 2.96905e-10 -6.67877e-10 1.09694e-09 7.73091 5.47488 0.417314 2.96905e-10 -6.67876e-10 1.09695e-09 2.90554 0.965183 0.102902 2.96907e-10 -6.67876e-10 1.09696e-09 10.2786 0.731801 0.0259123 2.96899e-10 -6.67875e-10 1.09696e-09 2.22167 -0.733487 -0.20892 0.0 0.0 0.0 0.0 0.0 0.0 0.0 0.0 0.0 0.728786 -23.4978 3.5031 8.48925e-10 7.46518e-10 1.40925e-10 1.45947e-09 1.30447e-09 2.57837e-10 8.48919e-10 7.46514e-10 1.40933e-10 -7.73091 5.47488 -0.417314 8.48924e-10 7.46515e-10 1.40927e-10 -2.90554 0.965183 -0.102902 8.48915e-10 7.46516e-10 1.40926e-10 -10.2786 0.731801 -0.0259123 8.48929e-10 7.46517e-10 1.40925e-10 -2.22167 -0.733487 0.20892 -2.03217e-16 0.0 -3.88251e-19 2.29971 -60.3787 -5.32792 -4.4024 78.9243 4.99443 -6.98976 -26.5878 -12.1994 2.03217e-16 0.0 3.88251e-19 23.1904 -74.5445 28.1524 40.2092 88.3626 -40.494 0.913749 -8.6469 0.756931
